<svg width="21" height="20" viewBox="0 0 21 20" fill="none" xmlns="http://www.w3.org/2000/svg">
<g id="Icon/photo">
<path id="Vector" d="M18.625 9.53125H15.2797C15.7422 8.69883 15.9794 7.76005 15.9677 6.80782C15.956 5.85559 15.6958 4.92292 15.213 4.10211C14.7301 3.28131 14.0413 2.60081 13.2147 2.12798C12.3881 1.65515 11.4523 1.40636 10.5 1.40625C10.3757 1.40625 10.2565 1.45564 10.1685 1.54354C10.0806 1.63145 10.0312 1.75068 10.0312 1.875V5.22031C9.19883 4.75777 8.26005 4.52061 7.30782 4.53231C6.35559 4.544 5.42292 4.80415 4.60211 5.28701C3.78131 5.76987 3.10081 6.45869 2.62798 7.28531C2.15515 8.11193 1.90636 9.0477 1.90625 10C1.90625 10.1243 1.95564 10.2435 2.04354 10.3315C2.13145 10.4194 2.25068 10.4688 2.375 10.4688H5.72031C5.25777 11.3012 5.02061 12.24 5.03231 13.1922C5.044 14.1444 5.30415 15.0771 5.78701 15.8979C6.26987 16.7187 6.95869 17.3992 7.78531 17.872C8.61193 18.3449 9.5477 18.5936 10.5 18.5938C10.6243 18.5938 10.7435 18.5444 10.8315 18.4565C10.9194 18.3685 10.9688 18.2493 10.9688 18.125V14.7797C11.8012 15.2422 12.74 15.4794 13.6922 15.4677C14.6444 15.456 15.5771 15.1958 16.3979 14.713C17.2187 14.2301 17.8992 13.5413 18.372 12.7147C18.8449 11.8881 19.0936 10.9523 19.0938 10C19.0938 9.87568 19.0444 9.75645 18.9565 9.66854C18.8685 9.58064 18.7493 9.53125 18.625 9.53125ZM15.0312 6.875C15.0353 7.82939 14.7342 8.76008 14.1719 9.53125H10.9688V2.36797C12.0828 2.48524 13.1141 3.01047 13.8642 3.84256C14.6142 4.67465 15.0299 5.75478 15.0312 6.875ZM7.375 5.46875C8.32939 5.46473 9.26008 5.76584 10.0312 6.32812V9.53125H2.86797C2.98524 8.41718 3.51047 7.38587 4.34256 6.63585C5.17465 5.88582 6.25478 5.47012 7.375 5.46875ZM5.96875 13.125C5.96473 12.1706 6.26584 11.2399 6.82812 10.4688H10.0312V17.632C8.91718 17.5148 7.88587 16.9895 7.13585 16.1574C6.38582 15.3253 5.97012 14.2452 5.96875 13.125ZM13.625 14.5312C12.6706 14.5353 11.7399 14.2342 10.9688 13.6719V10.4688H18.132C18.0148 11.5828 17.4895 12.6141 16.6574 13.3642C15.8253 14.1142 14.7452 14.5299 13.625 14.5312Z" fill="#9DA1B4"/>
</g>
</svg>
