<svg width="21" height="20" viewBox="0 0 21 20" fill="none" xmlns="http://www.w3.org/2000/svg">
<g id="Icon/smile">
<g id="Group">
<path id="Vector" fill-rule="evenodd" clip-rule="evenodd" d="M10.5001 2.29175C8.4557 2.29175 6.49506 3.10387 5.04947 4.54947C3.60387 5.99506 2.79175 7.9557 2.79175 10.0001C2.79175 12.0445 3.60387 14.0051 5.04947 15.4507C6.49506 16.8963 8.4557 17.7084 10.5001 17.7084C12.5445 17.7084 14.5051 16.8963 15.9507 15.4507C17.3963 14.0051 18.2084 12.0445 18.2084 10.0001C18.2084 7.9557 17.3963 5.99506 15.9507 4.54947C14.5051 3.10387 12.5445 2.29175 10.5001 2.29175ZM1.54175 10.0001C1.54175 5.05258 5.55258 1.04175 10.5001 1.04175C15.4476 1.04175 19.4584 5.05258 19.4584 10.0001C19.4584 14.9476 15.4476 18.9584 10.5001 18.9584C5.55258 18.9584 1.54175 14.9476 1.54175 10.0001ZM7.49758 12.9609C7.54652 12.8949 7.60798 12.8392 7.67846 12.797C7.74893 12.7548 7.82704 12.7269 7.9083 12.7149C7.98957 12.7029 8.07241 12.7071 8.15207 12.7271C8.23174 12.7472 8.30667 12.7827 8.37258 12.8317C8.97925 13.2817 9.71175 13.5417 10.5001 13.5417C11.2884 13.5417 12.0209 13.2809 12.6276 12.8317C12.6933 12.7806 12.7686 12.7431 12.849 12.7215C12.9294 12.6998 13.0133 12.6945 13.0958 12.7057C13.1783 12.717 13.2577 12.7446 13.3294 12.7869C13.4011 12.8293 13.4636 12.8856 13.5132 12.9524C13.5628 13.0193 13.5986 13.0953 13.6184 13.1762C13.6383 13.2571 13.6417 13.3411 13.6286 13.4233C13.6155 13.5056 13.5861 13.5843 13.5422 13.655C13.4982 13.7258 13.4405 13.787 13.3726 13.8351C12.5432 14.4552 11.5357 14.7907 10.5001 14.7917C9.46451 14.7907 8.45697 14.4552 7.62758 13.8351C7.49444 13.7364 7.40594 13.5889 7.38157 13.4249C7.35719 13.261 7.39892 13.0941 7.49758 12.9609Z" fill="#9DA1B4"/>
<path id="Vector_2" d="M13.8334 8.75C13.8334 9.44 13.4601 10 13.0001 10C12.5401 10 12.1667 9.44 12.1667 8.75C12.1667 8.06 12.5401 7.5 13.0001 7.5C13.4601 7.5 13.8334 8.06 13.8334 8.75ZM8.83341 8.75C8.83341 9.44 8.46008 10 8.00008 10C7.54008 10 7.16675 9.44 7.16675 8.75C7.16675 8.06 7.54008 7.5 8.00008 7.5C8.46008 7.5 8.83341 8.06 8.83341 8.75Z" fill="#9DA1B4"/>
</g>
</g>
</svg>
