<svg width="20" height="20" viewBox="0 0 20 20" fill="none" xmlns="http://www.w3.org/2000/svg">
<g id="Icon/keyboard">
<path id="Vector" d="M16.1974 15.4166H3.80159C3.24906 15.4166 2.71916 15.1971 2.32846 14.8064C1.93776 14.4157 1.71826 13.8858 1.71826 13.3333V6.66659C1.71826 6.11405 1.93776 5.58415 2.32846 5.19345C2.71916 4.80275 3.24906 4.58325 3.80159 4.58325H16.1974C16.75 4.58325 17.2799 4.80275 17.6706 5.19345C18.0613 5.58415 18.2808 6.11405 18.2808 6.66659V13.3333C18.2808 13.8858 18.0613 14.4157 17.6706 14.8064C17.2799 15.1971 16.75 15.4166 16.1974 15.4166ZM3.80159 5.41659C3.47007 5.41659 3.15213 5.54828 2.91771 5.7827C2.68329 6.01712 2.5516 6.33506 2.5516 6.66659V13.3333C2.5516 13.6648 2.68329 13.9827 2.91771 14.2171C3.15213 14.4516 3.47007 14.5833 3.80159 14.5833H16.1974C16.5289 14.5833 16.8469 14.4516 17.0813 14.2171C17.3157 13.9827 17.4474 13.6648 17.4474 13.3333V6.66659C17.4474 6.33506 17.3157 6.01712 17.0813 5.7827C16.8469 5.54828 16.5289 5.41659 16.1974 5.41659H3.80159Z" fill="black"/>
<path id="Vector_2" d="M4.62345 13.7501H15.3735C15.484 13.7501 15.5899 13.7062 15.6681 13.628C15.7462 13.5499 15.7901 13.4439 15.7901 13.3334C15.7901 13.2229 15.7462 13.1169 15.6681 13.0388C15.5899 12.9606 15.484 12.9167 15.3735 12.9167H4.62345C4.51295 12.9167 4.40697 12.9606 4.32883 13.0388C4.25069 13.1169 4.20679 13.2229 4.20679 13.3334C4.20679 13.4439 4.25069 13.5499 4.32883 13.628C4.40697 13.7062 4.51295 13.7501 4.62345 13.7501Z" fill="black"/>
<path id="Vector_3" d="M4.8501 8.33179C5.19528 8.33179 5.4751 8.05197 5.4751 7.70679C5.4751 7.36161 5.19528 7.08179 4.8501 7.08179C4.50492 7.08179 4.2251 7.36161 4.2251 7.70679C4.2251 8.05197 4.50492 8.33179 4.8501 8.33179Z" fill="black"/>
<path id="Vector_4" d="M8.28345 8.33179C8.62863 8.33179 8.90845 8.05197 8.90845 7.70679C8.90845 7.36161 8.62863 7.08179 8.28345 7.08179C7.93827 7.08179 7.65845 7.36161 7.65845 7.70679C7.65845 8.05197 7.93827 8.33179 8.28345 8.33179Z" fill="black"/>
<path id="Vector_5" d="M11.7166 8.33179C12.0617 8.33179 12.3416 8.05197 12.3416 7.70679C12.3416 7.36161 12.0617 7.08179 11.7166 7.08179C11.3714 7.08179 11.0916 7.36161 11.0916 7.70679C11.0916 8.05197 11.3714 8.33179 11.7166 8.33179Z" fill="black"/>
<path id="Vector_6" d="M15.1499 8.33179C15.4951 8.33179 15.7749 8.05197 15.7749 7.70679C15.7749 7.36161 15.4951 7.08179 15.1499 7.08179C14.8047 7.08179 14.5249 7.36161 14.5249 7.70679C14.5249 8.05197 14.8047 8.33179 15.1499 8.33179Z" fill="black"/>
<path id="Vector_7" d="M4.8501 11.4568C5.19528 11.4568 5.4751 11.177 5.4751 10.8318C5.4751 10.4866 5.19528 10.2068 4.8501 10.2068C4.50492 10.2068 4.2251 10.4866 4.2251 10.8318C4.2251 11.177 4.50492 11.4568 4.8501 11.4568Z" fill="black"/>
<path id="Vector_8" d="M8.28345 11.4568C8.62863 11.4568 8.90845 11.177 8.90845 10.8318C8.90845 10.4866 8.62863 10.2068 8.28345 10.2068C7.93827 10.2068 7.65845 10.4866 7.65845 10.8318C7.65845 11.177 7.93827 11.4568 8.28345 11.4568Z" fill="black"/>
<path id="Vector_9" d="M11.7166 11.4568C12.0617 11.4568 12.3416 11.177 12.3416 10.8318C12.3416 10.4866 12.0617 10.2068 11.7166 10.2068C11.3714 10.2068 11.0916 10.4866 11.0916 10.8318C11.0916 11.177 11.3714 11.4568 11.7166 11.4568Z" fill="black"/>
<path id="Vector_10" d="M15.1499 11.4568C15.4951 11.4568 15.7749 11.177 15.7749 10.8318C15.7749 10.4866 15.4951 10.2068 15.1499 10.2068C14.8047 10.2068 14.5249 10.4866 14.5249 10.8318C14.5249 11.177 14.8047 11.4568 15.1499 11.4568Z" fill="black"/>
</g>
</svg>
