<svg width="16" height="17" viewBox="0 0 16 17" fill="none" xmlns="http://www.w3.org/2000/svg">
<g id="Icon/map">
<path id="Vector" d="M12.5 14.625H9.07625C9.6852 14.1031 10.2556 13.5379 10.7831 12.9338C12.4788 10.9838 13.375 8.93375 13.375 7C13.375 5.57446 12.8087 4.20731 11.8007 3.1993C10.7927 2.19129 9.42554 1.625 8 1.625C6.57446 1.625 5.20731 2.19129 4.1993 3.1993C3.19129 4.20731 2.625 5.57446 2.625 7C2.625 8.93188 3.52125 10.9838 5.21688 12.9338C5.74435 13.5379 6.3148 14.1031 6.92375 14.625H3.5C3.40054 14.625 3.30516 14.6645 3.23483 14.7348C3.16451 14.8052 3.125 14.9005 3.125 15C3.125 15.0995 3.16451 15.1948 3.23483 15.2652C3.30516 15.3355 3.40054 15.375 3.5 15.375H12.5C12.5995 15.375 12.6948 15.3355 12.7652 15.2652C12.8355 15.1948 12.875 15.0995 12.875 15C12.875 14.9005 12.8355 14.8052 12.7652 14.7348C12.6948 14.6645 12.5995 14.625 12.5 14.625ZM3.375 7C3.375 5.77337 3.86228 4.59699 4.72963 3.72963C5.59699 2.86228 6.77337 2.375 8 2.375C9.22663 2.375 10.403 2.86228 11.2704 3.72963C12.1377 4.59699 12.625 5.77337 12.625 7C12.625 10.7262 8.9375 13.8081 8 14.5319C7.0625 13.8081 3.375 10.7262 3.375 7ZM10.375 7C10.375 6.53027 10.2357 6.07109 9.97474 5.68052C9.71377 5.28995 9.34285 4.98554 8.90887 4.80579C8.4749 4.62603 7.99737 4.57899 7.53666 4.67063C7.07596 4.76227 6.65277 4.98847 6.32062 5.32062C5.98847 5.65277 5.76227 6.07596 5.67063 6.53666C5.57899 6.99737 5.62603 7.4749 5.80579 7.90887C5.98554 8.34285 6.28995 8.71377 6.68052 8.97474C7.07109 9.23571 7.53027 9.375 8 9.375C8.62989 9.375 9.23398 9.12478 9.67938 8.67938C10.1248 8.23398 10.375 7.62989 10.375 7ZM6.375 7C6.375 6.67861 6.4703 6.36443 6.64886 6.0972C6.82742 5.82997 7.08121 5.62169 7.37814 5.4987C7.67507 5.3757 8.0018 5.34352 8.31702 5.40622C8.63224 5.46892 8.92179 5.62369 9.14905 5.85095C9.37631 6.07821 9.53107 6.36776 9.59378 6.68298C9.65648 6.9982 9.6243 7.32493 9.5013 7.62186C9.37831 7.91879 9.17003 8.17258 8.9028 8.35114C8.63557 8.5297 8.32139 8.625 8 8.625C7.56902 8.625 7.1557 8.45379 6.85095 8.14905C6.54621 7.8443 6.375 7.43098 6.375 7Z" fill="black"/>
</g>
</svg>
